<svg width="32" height="32" viewBox="0 0 32 32" fill="none" xmlns="http://www.w3.org/2000/svg">
<path d="M22.6666 16C22.6666 18.2667 20.9333 20 18.6666 20C16.4 20 14.6666 18.2667 14.6666 16C14.6666 13.7333 16.4 12 18.6666 12C20.9333 12 22.6666 13.7333 22.6666 16ZM29.3333 9.33333V24C29.3333 25.4667 28.1333 26.6667 26.6666 26.6667H5.33329C3.86663 26.6667 2.66663 25.4667 2.66663 24V9.33333C2.66663 7.86667 3.86663 6.66667 5.33329 6.66667V5.33333H10.6666V6.66667H13.3333L14.6666 4H22.6666L24 6.66667H26.6666C28.1333 6.66667 29.3333 7.86667 29.3333 9.33333ZM9.99996 12C9.99996 10.9333 9.06663 10 7.99996 10C6.93329 10 5.99996 10.9333 5.99996 12C5.99996 13.0667 6.93329 14 7.99996 14C9.06663 14 9.99996 13.0667 9.99996 12ZM25.3333 16C25.3333 12.2667 22.4 9.33333 18.6666 9.33333C14.9333 9.33333 12 12.2667 12 16C12 19.7333 14.9333 22.6667 18.6666 22.6667C22.4 22.6667 25.3333 19.7333 25.3333 16Z" fill="#0077B5"/>
</svg>
