<svg width="35" height="35" viewBox="0 0 35 35" fill="none" xmlns="http://www.w3.org/2000/svg">
<path d="M32.8489 10.4256C32.6377 10.2951 32.3966 10.2207 32.1485 10.2095C31.9004 10.1982 31.6536 10.2505 31.4314 10.3614L27.7083 12.2237V11.6666C27.7083 9.25454 25.7454 7.29163 23.3333 7.29163H7.29163C4.87954 7.29163 2.91663 9.25454 2.91663 11.6666V23.3333C2.91663 25.7454 4.87954 27.7083 7.29163 27.7083H23.3333C25.7454 27.7083 27.7083 25.7454 27.7083 23.3333V22.7762L31.4314 24.637C31.6531 24.7495 31.9001 24.8028 32.1484 24.7918C32.3967 24.7809 32.638 24.7059 32.8489 24.5743C33.2791 24.3075 33.5416 23.8393 33.5416 23.3333V11.6666C33.5416 11.1606 33.2791 10.6925 32.8489 10.4256ZM10.2083 19.6875C9.91637 19.6951 9.62588 19.6442 9.35394 19.5378C9.082 19.4314 8.83412 19.2716 8.62491 19.0679C8.41571 18.8641 8.24941 18.6206 8.13583 18.3515C8.02225 18.0825 7.96369 17.7935 7.96359 17.5014C7.96349 17.2094 8.02187 16.9203 8.13527 16.6512C8.24867 16.3821 8.4148 16.1385 8.62387 15.9346C8.83294 15.7307 9.08071 15.5708 9.35258 15.4642C9.62445 15.3576 9.91491 15.3065 10.2068 15.3139C10.777 15.3285 11.319 15.5651 11.7172 15.9735C12.1154 16.3818 12.3384 16.9296 12.3386 17.5C12.3388 18.0704 12.1162 18.6183 11.7182 19.0269C11.3203 19.4355 10.7785 19.6725 10.2083 19.6875Z" fill="#0077B5"/>
</svg>
